PathFileType	4	(X/Y/Z)	Run_500 03
DataRate	CameraRate	NumFrames	NumMarkers	Units	OrigDataRate	OrigDataStartFrame	OrigNumFrames
100	100	6	42	mm	100	462	128
Frame#	Time	RASI			LPSI			RPSI			RTH1			RTH2			RTH3			LTH1			LTH2			LTH3			RTB1			RTB2			RTB3			LTB1			LTB2			LTB3			RCAL			RTOE			RMT5			LCAL			LTOE			LMT5			LACR			RACR			CLAV			C7			RUA1			RUA2			RUA3			RLEL			RMEL			LUA1			LUA2			LUA3			LLEL			LMEL			RFAsuperior			RFAradius			RFAulna			LFAsuperior			LFAradius			LFAulna			LASI		
		X1	Y1	Z1	X2	Y2	Z2	X3	Y3	Z3	X4	Y4	Z4	X5	Y5	Z5	X6	Y6	Z6	X7	Y7	Z7	X8	Y8	Z8	X9	Y9	Z9	X10	Y10	Z10	X11	Y11	Z11	X12	Y12	Z12	X13	Y13	Z13	X14	Y14	Z14	X15	Y15	Z15	X16	Y16	Z16	X17	Y17	Z17	X18	Y18	Z18	X19	Y19	Z19	X20	Y20	Z20	X21	Y21	Z21	X22	Y22	Z22	X23	Y23	Z23	X24	Y24	Z24	X25	Y25	Z25	X26	Y26	Z26	X27	Y27	Z27	X28	Y28	Z28	X29	Y29	Z29	X30	Y30	Z30	X31	Y31	Z31	X32	Y32	Z32	X33	Y33	Z33	X34	Y34	Z34	X35	Y35	Z35	X36	Y36	Z36	X37	Y37	Z37	X38	Y38	Z38	X39	Y39	Z39	X40	Y40	Z40	X41	Y41	Z41	X42	Y42	Z42	

462	  4.620000	761.513325	1065.871003	-234.811178	589.887842	1129.067815	-400.421869	584.984169	1131.319239	-316.650851	745.282907	959.914299	-162.549458	873.689957	883.077490	-181.369692	878.647900	764.572660	-190.664622	639.131082	923.366321	-533.094923	643.128652	792.885512	-514.001624	501.427301	711.644385	-493.285768	950.659853	544.705539	-245.599023	863.169781	474.334203	-193.100455	848.330986	369.437834	-248.248309	424.971345	486.755051	-434.190124	321.887308	472.698165	-487.104289	281.847176	338.921786	-422.977441	677.645375	295.511790	-268.588256	888.184792	195.982764	-264.408255	847.822813	176.605943	-179.751472	114.435118	340.234034	-373.860777	202.438933	124.740054	-397.511774	133.788422	134.820008	-456.484836	788.453940	1555.614298	-507.566599	688.653223	1557.039956	-186.696330	797.420884	1520.185848	-306.114663	679.055350	1591.420032	-381.511272	586.028106	1490.720145	-123.556139	507.474960	1442.606140	-171.067387	505.105262	1407.180252	-96.453649	441.885745	1330.747408	-72.188392	433.143115	1315.011006	-149.512556	800.989228	1456.332915	-609.923495	749.060952	1366.277412	-630.260707	819.360196	1348.187091	-663.517756	852.631076	1270.157929	-696.538614	803.608054	1215.730347	-664.168638	450.776709	1254.983812	-44.849595	559.968392	1078.673372	-34.632262	491.011502	1065.889253	-27.050130	931.178727	1279.562863	-599.197396	954.339670	1347.331522	-460.435320	982.439436	1285.207318	-462.308927	755.672322	1018.455836	-474.002779	
463	  4.630000	761.018982	1067.367260	-235.879420	591.425848	1134.647102	-400.589651	585.648064	1136.173077	-316.736145	743.657235	958.900664	-163.279785	871.957992	883.379449	-181.586476	874.463826	762.988592	-192.617299	638.115976	930.594088	-532.799610	642.954783	798.338394	-515.902389	502.129606	716.529377	-497.217137	958.986104	539.796303	-245.293003	882.244998	458.398672	-192.593834	880.483392	353.033270	-248.993759	414.363289	495.100153	-437.997102	309.667675	490.055947	-488.959312	258.984931	361.076548	-423.956145	720.590833	258.192236	-268.355498	941.405355	184.274237	-266.570173	904.429146	159.174811	-181.821227	 91.828143	377.238113	-371.114309	161.468786	155.975949	-397.139558	 92.579135	171.473641	-454.460751	790.090002	1560.179164	-505.293049	688.206500	1561.488488	-186.327307	797.964059	1524.025421	-304.449468	680.184770	1595.318614	-380.616260	583.837041	1497.810871	-124.781334	505.765418	1450.586832	-174.634704	501.588149	1415.077756	-99.883574	436.515211	1339.532468	-76.113147	430.205671	1322.478469	-153.348694	803.924716	1461.733981	-608.102887	753.041379	1371.924415	-631.159323	823.932342	1354.204697	-662.006490	857.087544	1276.249328	-695.107823	807.707700	1221.684582	-663.350108	444.450481	1263.875707	-47.384055	552.973307	1086.785362	-32.993454	483.741834	1074.397796	-26.295926	932.322162	1287.819990	-595.756694	949.926664	1355.690498	-456.457843	980.147356	1294.401979	-457.049904	756.823017	1022.449265	-474.384454	
464	  4.640000	759.835582	1067.792837	-235.653339	593.014838	1138.986090	-399.640184	586.449606	1139.515916	-315.953672	742.596329	957.209153	-163.815145	870.031569	881.769477	-181.635653	868.085892	758.335212	-193.852640	639.218183	936.112480	-532.296201	645.065705	802.027845	-516.175437	504.881842	719.504119	-501.058198	963.776769	533.154343	-244.976923	899.640743	442.120828	-192.441422	910.518264	338.028993	-250.323270	405.500375	502.883180	-441.834608	299.837843	507.662789	-490.552985	238.424791	385.399456	-423.925611	764.000990	224.510578	-268.770633	991.568623	176.644372	-270.629432	959.058490	145.349426	-186.818331	 72.703795	416.887236	-370.639097	123.300573	190.958659	-392.036990	 56.279620	210.939814	-450.054170	790.903817	1564.325227	-503.825605	687.849569	1565.183015	-185.726657	798.139050	1527.361272	-302.806560	681.189243	1598.722734	-379.554586	582.434665	1503.151203	-125.418503	504.767546	1456.211934	-177.702865	499.293991	1421.336804	-102.547404	432.913791	1346.724542	-78.566959	428.196385	1328.227131	-155.741828	805.393091	1466.553598	-606.388823	755.453079	1376.930835	-631.256460	826.441763	1359.448523	-660.078289	859.378862	1281.332056	-693.544634	808.956415	1227.147475	-662.460162	439.908726	1270.882374	-48.859336	547.448859	1093.255768	-30.448164	477.936465	1080.929366	-26.096561	932.493268	1292.473321	-592.753119	946.968133	1358.664863	-452.218923	978.251442	1297.623300	-453.183332	758.416062	1025.734001	-474.518241	
465	  4.650000	758.824025	1067.496621	-234.761307	594.623083	1141.917032	-398.073531	587.616936	1141.345521	-314.716358	741.783176	955.944814	-164.341651	866.630471	876.859753	-181.482502	858.752583	750.482472	-194.066962	642.313687	939.456558	-532.295055	648.537624	804.140018	-515.609812	508.538121	721.175552	-504.083552	965.042947	525.444807	-245.204246	914.427138	426.737333	-192.920334	937.155027	325.320650	-252.060893	398.635819	510.332552	-444.539397	293.455318	524.660777	-492.073148	220.717560	411.003172	-422.804380	805.776932	195.951177	-269.701039	1036.490624	173.731992	-276.634887	1009.781882	136.152954	-194.216432	 59.463874	458.674958	-372.960052	 89.350237	228.795639	-384.210689	 24.707482	252.237683	-443.613116	790.902697	1567.887875	-502.656346	687.402236	1567.920651	-185.158751	797.956859	1529.975281	-301.118813	682.186339	1601.704922	-378.369803	581.253711	1506.626950	-125.833819	504.349865	1459.266821	-179.999855	497.781374	1425.803737	-104.195539	430.561775	1351.689850	-79.739753	426.761537	1332.317897	-156.774628	805.456341	1470.700693	-604.729102	755.657765	1381.250069	-630.317904	826.570369	1363.883227	-658.434392	859.453551	1285.210503	-691.825969	807.477133	1231.739714	-661.858378	436.936946	1275.972841	-49.216675	543.491359	1098.203562	-26.687989	473.849774	1085.641399	-25.832655	931.624472	1293.277763	-590.143514	946.022031	1356.346200	-447.862706	976.566281	1294.751486	-450.628288	760.437974	1028.207067	-474.304165	
466	  4.660000	758.606494	1066.925705	-233.702218	596.140910	1143.355716	-396.790424	588.944155	1141.630579	-313.624749	740.355984	954.395756	-164.525558	860.433620	867.269138	-181.278464	846.153315	739.593989	-193.209119	646.943618	940.617321	-533.077431	652.942550	804.898957	-514.988526	512.929825	721.648293	-506.179553	963.331767	517.395640	-245.806467	925.094955	413.455303	-193.805577	959.068304	315.658587	-253.730312	394.090218	517.274808	-445.484209	290.937795	540.257978	-493.570276	206.374005	436.792428	-420.955153	843.022978	173.555754	-271.334913	1073.965660	175.216217	-283.711230	1053.731010	131.720762	-202.316556	 52.341850	501.364836	-376.548856	 60.438848	269.238815	-376.564369	 -2.257109	295.467812	-436.716247	790.288270	1570.478030	-501.112315	686.689280	1569.362098	-184.755014	797.533572	1531.460627	-299.468612	683.150992	1604.154597	-377.151472	579.762978	1508.341289	-126.295149	504.227396	1459.755766	-181.415454	496.577536	1428.473342	-104.739249	429.025968	1354.400139	-79.737054	425.667547	1334.579514	-156.660154	804.289900	1473.869287	-603.191953	753.632030	1384.702235	-628.463047	824.556341	1367.212748	-657.533820	857.496611	1287.647681	-690.167091	803.777968	1235.059188	-661.885095	435.071346	1279.142252	-48.435430	541.214079	1101.821125	-21.423692	471.670589	1088.783461	-24.485629	929.696394	1290.346667	-588.195018	946.875449	1348.885272	-443.879787	974.630241	1286.163557	-449.365496	763.034489	1030.290913	-473.740424	
467	  4.670000	759.144548	1066.220820	-232.601817	597.566690	1143.272501	-396.613154	590.072275	1140.308247	-313.304488	737.815721	950.878120	-163.772469	851.305617	853.399896	-181.120317	831.206399	726.588523	-191.648167	652.517911	939.875063	-534.312514	658.227507	804.304673	-514.442093	518.572720	720.634876	-507.649549	959.461033	509.619849	-246.003887	930.353553	402.652251	-194.785194	975.238898	309.019052	-254.746653	392.007513	523.384221	-444.926532	291.914289	554.218774	-494.841244	196.077113	462.237802	-419.017238	872.950501	157.658824	-274.646479	1102.480645	179.137877	-289.684442	1087.583897	130.333376	-209.062966	 50.400531	543.548788	-379.503539	 37.022841	311.706682	-371.159951	-23.813398	340.769019	-431.506378	789.332546	1571.702540	-498.912156	685.567359	1569.228672	-184.382501	796.931845	1531.531891	-297.925185	683.881727	1605.784974	-375.941001	577.852226	1508.433019	-126.775124	504.036976	1457.924715	-182.030945	495.312833	1429.298954	-104.375499	428.120175	1355.371341	-78.505158	424.890463	1334.657417	-155.531274	802.117914	1475.792685	-601.862164	749.991103	1387.081727	-626.090973	821.033498	1369.053689	-657.243726	853.816347	1288.490277	-688.863448	798.420535	1236.892837	-662.593537	433.809055	1280.361811	-46.488337	540.710981	1104.152872	-14.817698	471.442650	1090.471946	-21.159032	926.734004	1284.059343	-587.304625	948.625829	1336.454461	-440.858574	971.964221	1272.604193	-449.548800	766.200950	1032.232580	-472.928383	
